# xmcd
#
# Track frame offsets: 
#        182
#        12997
#        26090
#        37745
#        48677
#        60855
#        70297
#        82312
#        94225
#        105345
#        115080
#        124047
#        133610
#        145145
#        156355
#        167155
#        178595
#        190177
#        202150
#        211475
#        222687
#        234097
#        248177
#        256960
#        269690
#        279560
#        289677
#        302085
#        317192
#        328817
#
# Disc length: 4527 seconds
#
# Revision: 2
# Processed by: cddbd v1.5.2PL0 Copyright (c) Steve Scherf et al.
# Submitted via: ExactAudioCopy v0.95b4
#
DISCID=ca11ad1e
DTITLE=Lefty Frizzell - Life's Like Poetry - Disc 04 of 12
DYEAR=1992
DGENRE=Country
TTITLE0=These Hands (1955)
TTITLE1=You Can't Divorce My Heart (recorded 1955 - released 1984)
TTITLE2=Treat Her Right (recorded 1955 - released 1984)
TTITLE3=Heart's Highway (1956)
TTITLE4=I'm A Boy Left Alone (1956)
TTITLE5=Just Can't Live That Fast (Anymore) (1956)
TTITLE6=The Waltz Of The Angels (1956)
TTITLE7=Lullaby Waltz (1956)
TTITLE8=Glad I Found You (1956)
TTITLE9=Now That You Are Gone (1957)
TTITLE10=From An Angel To A Devil (1957)
TTITLE11=Lefty Frizzell and Johnny Bond - Lover By Appointment (1957)
TTITLE12=Lefty Frizzell and Johnny Bond - Sick, Sober And Sorry (1957)
TTITLE13=Lefty Frizzell  and Shirley Caddell - No One To Talk To But The
TTITLE13=Blues (1957)
TTITLE14=Is It Only That You're Lonely (1957)
TTITLE15=Mailman Bring Me No More Blues (recorded 1957 - released 1984
TTITLE15=)
TTITLE16=You've Still Got It (recorded 1957 - released 1984)
TTITLE17=Tell Me Dear (1957)
TTITLE18=To Stop Loving You (Means Cry) (recorded 1957 - released 1984
TTITLE18=)
TTITLE19=The Torch Within My Heart (1958)
TTITLE20=Time Out For The Blues (1957)
TTITLE21=I Love You A Thousand Ways (recorded 1958 - released 1992)
TTITLE22=If You've Got The Money I've Got The Time (recorded 1958 - re
TTITLE22=leased 1992)
TTITLE23=I Want To Be With You Always (recorded 1958 - released 1992)
TTITLE24=Mom And Dad's Waltz (recorded 1958 - released 1992)
TTITLE25=Darling Let's Turn Back The Years (recorded 1958 - released 1
TTITLE25=992)
TTITLE26=You Win Again (recorded 1958 - released 1992)
TTITLE27=Why Should I Be Lonely (1959)
TTITLE28=Signed, Sealed And Delivered (1959)
TTITLE29=Nobody Knows But Me (1959)
EXTD=Life's Like Poetry - Disc 04 of 12\n© 1992 Bear Family Records
EXTT0=
EXTT1=
EXTT2=
EXTT3=
EXTT4=
EXTT5=
EXTT6=
EXTT7=
EXTT8=
EXTT9=
EXTT10=
EXTT11=
EXTT12=
EXTT13=
EXTT14=
EXTT15=
EXTT16=
EXTT17=
EXTT18=
EXTT19=
EXTT20=
EXTT21=
EXTT22=
EXTT23=
EXTT24=
EXTT25=
EXTT26=
EXTT27=
EXTT28=
EXTT29=
PLAYORDER=
